<svg xmlns="http://www.w3.org/2000/svg" xmlns:xlink="http://www.w3.org/1999/xlink" width="1366" zoomAndPan="magnify" viewBox="0 0 1024.5 576" height="768" preserveAspectRatio="xMidYMid meet" version="1.0"><defs><clipPath id="23329ddd7f"><path d="M 0 61 L 820 61 L 820 575.859375 L 0 575.859375 Z M 0 61 " clip-rule="nonzero"/></clipPath><clipPath id="b1d75c9a31"><path d="M 400.136719 -261.425781 L 1215.664062 393.691406 L 648.839844 1099.300781 L -166.683594 444.1875 Z M 400.136719 -261.425781 " clip-rule="nonzero"/></clipPath><clipPath id="16b9ad2f7e"><path d="M 400.113281 -261.636719 L 1188.5 371.675781 L 622.320312 1076.492188 L -166.066406 443.179688 Z M 400.113281 -261.636719 " clip-rule="nonzero"/></clipPath><clipPath id="8bca3ced19"><path d="M 399.996094 -262.691406 L 1217.019531 393.628906 L 648.964844 1100.78125 L -168.058594 444.460938 Z M 399.996094 -262.691406 " clip-rule="nonzero"/></clipPath><clipPath id="647d807f9e"><path d="M 0 0.140625 L 1024 0.140625 L 1024 575.859375 L 0 575.859375 Z M 0 0.140625 " clip-rule="nonzero"/></clipPath><clipPath id="5ee79ed33f"><path d="M 399.996094 -262.691406 L 1217.019531 393.628906 L 648.964844 1100.78125 L -168.058594 444.460938 Z M 399.996094 -262.691406 " clip-rule="nonzero"/></clipPath><clipPath id="46d3aa2399"><path d="M 399.996094 -262.691406 L 1216.921875 393.546875 L 648.972656 1100.5625 L -167.949219 444.324219 Z M 399.996094 -262.691406 " clip-rule="nonzero"/></clipPath></defs><g clip-path="url(#23329ddd7f)"><g clip-path="url(#b1d75c9a31)"><g clip-path="url(#16b9ad2f7e)"><g clip-path="url(#8bca3ced19)"><path fill="#ffffff" d="M -117.328125 406.964844 L 764.148438 64.613281 C 793.296875 53.25 823.722656 77.6875 818.910156 108.601562 L 674.511719 1043.316406 C 669.699219 1074.230469 633.394531 1088.273438 609.054688 1068.71875 L -128.152344 476.523438 C -152.359375 456.808594 -146.476562 418.328125 -117.328125 406.964844 Z M -117.328125 406.964844 " fill-opacity="1" fill-rule="nonzero"/></g></g></g></g><g clip-path="url(#647d807f9e)"><g clip-path="url(#5ee79ed33f)"><g clip-path="url(#46d3aa2399)"><path stroke-linecap="butt" transform="matrix(0.584423, 0.469469, -0.469469, 0.584423, 399.997414, -262.689734)" fill="none" stroke-linejoin="miter" d="M -0.00277022 -0.000636724 L -0.000437893 1209.764116 L 1397.82782 1209.76693 L 1397.82955 -0.00108586 L -0.00277022 -0.000636724 " stroke="#000000" stroke-width="8" stroke-opacity="1" stroke-miterlimit="4"/></g></g></g></svg>