<?xml version="1.0" encoding="UTF-8"?>
<svg id="Camada_2" data-name="Camada 2" xmlns="http://www.w3.org/2000/svg" viewBox="0 0 182.46 53.29">
  <defs>
    <style>
      .cls-1 {
        fill: #fff;
      }

      .cls-2 {
        fill: #f1891e;
      }
    </style>
  </defs>
  <g id="Camada_1-2" data-name="Camada 1">
    <path class="cls-1" d="M21.85,41.81h-.92c-2.51-3.18-5-6.35-7.48-9.5-2.48-3.15-4.97-6.32-7.48-9.5-.8.76-1.59,1.51-2.39,2.25s-1.59,1.48-2.39,2.25c0,2.42,0,4.84.02,7.25.01,2.42.02,4.84.02,7.26h-.64V9.67h.64v15.61c0,.25,0,.47-.02.67-.02.2-.02.42-.02.67.15-.15.28-.31.39-.46.11-.15.24-.31.39-.46,2.82-2.69,5.62-5.36,8.4-8.01,2.78-2.65,5.58-5.32,8.4-8.01h1.01c-2.23,2.11-4.45,4.22-6.66,6.33-2.2,2.11-4.42,4.22-6.66,6.34,2.6,3.25,5.17,6.49,7.69,9.73,2.52,3.25,5.09,6.49,7.69,9.73Z"/>
    <path class="cls-1" d="M34.65,25.23c-1.01.03-1.97.22-2.87.58-.9.35-1.7.82-2.39,1.42-.69.6-1.23,1.31-1.63,2.14-.4.82-.6,1.71-.6,2.66v9.78h-.64v-17.22h.64v4.52c.64-1.47,1.5-2.33,2.84-3.17s2.89-1.29,4.64-1.35v.64Z"/>
    <path class="cls-1" d="M39.87,41.81h-.63v-17.22h.63v17.22Z"/>
    <path class="cls-1" d="M48.02,53.29h-.87l5.65-11.29c-1.47-2.91-2.92-5.81-4.34-8.7-1.42-2.89-2.87-5.79-4.34-8.7h.83c1.38,2.79,2.75,5.55,4.13,8.29,1.38,2.74,2.75,5.5,4.13,8.28,1.38-2.79,2.75-5.55,4.13-8.28,1.38-2.74,2.75-5.5,4.13-8.29h.83c-2.39,4.8-4.77,9.59-7.14,14.35-2.37,4.76-4.75,9.54-7.14,14.35Z"/>
    <path class="cls-1" d="M63.27,33.18c0-1.22.23-2.39.69-3.49.46-1.1,1.09-2.05,1.91-2.84.81-.79,1.75-1.43,2.82-1.9s2.23-.71,3.49-.71c1.9,0,3.59.53,5.07,1.58,1.48,1.05,2.56,2.41,3.24,4.06,0-.89.01-1.76.05-2.64.03-.87.08-1.75.14-2.64h.46v17.22h-.64v-2.48c0-.49,0-.97.02-1.45.01-.47.02-.96.02-1.44-.34.82-.78,1.58-1.33,2.27-.55.69-1.19,1.29-1.91,1.79-.72.5-1.52.9-2.39,1.17-.87.27-1.78.41-2.73.41-1.26,0-2.42-.23-3.49-.69-1.07-.46-2.01-1.1-2.82-1.91-.81-.81-1.45-1.75-1.91-2.82-.46-1.07-.69-2.23-.69-3.49ZM63.92,33.18c0,1.16.21,2.24.64,3.23.43,1,1.02,1.87,1.77,2.62s1.62,1.34,2.62,1.77c.99.43,2.07.64,3.24.64s2.21-.21,3.21-.64c1.01-.43,1.9-1.02,2.66-1.77s1.36-1.62,1.79-2.62c.43-.99.64-2.07.64-3.23s-.22-2.21-.64-3.22c-.43-1.01-1.03-1.9-1.79-2.66s-1.65-1.36-2.66-1.79c-1.01-.43-2.08-.64-3.21-.64s-2.24.21-3.24.64-1.87,1.03-2.62,1.79-1.34,1.65-1.77,2.66c-.43,1.01-.64,2.08-.64,3.22Z"/>
    <g id="Retângulo_1" data-name="Retângulo 1">
      <rect class="cls-2" x="0" y="0" width="80.54" height="4.28"/>
    </g>
    <g id="Retângulo_1-2" data-name="Retângulo 1">
      <rect class="cls-2" x="95.33" y="37.5" width="80.54" height="4.28"/>
    </g>
    <rect class="cls-2" x="87.03" y="39.35" width="2.44" height="2.44"/>
    <rect class="cls-2" x="180.03" y="39.38" width="2.44" height="2.44"/>
    <path class="cls-1" d="M95.53,24.21h2.55c.75,0,1.46.13,2.13.39.67.25,1.25.62,1.76,1.1.5.48.9,1.06,1.19,1.73.29.67.44,1.43.44,2.28,0,.62-.11,1.25-.32,1.9-.22.65-.56,1.23-1.04,1.76-.48.53-1.1.96-1.87,1.3-.77.34-1.71.51-2.81.51h-2.02v-10.97ZM96.83,25.45v8.48h1.1c.62,0,1.19-.1,1.72-.3s.99-.48,1.39-.85.7-.82.93-1.33c.22-.51.33-1.1.33-1.75s-.11-1.23-.33-1.75c-.23-.52-.53-.97-.93-1.34s-.85-.65-1.39-.85-1.11-.3-1.72-.3h-1.1Z"/>
    <path class="cls-1" d="M111.53,35.18v-10.97h6.75v1.24h-5.45v3.59h4.84v1.24h-4.84v3.66h5.67v1.24h-6.97Z"/>
    <path class="cls-1" d="M133.39,25.29c-.14.16-.27.32-.4.47-.13.16-.26.31-.4.47-.09-.08-.21-.17-.36-.28-.15-.1-.32-.19-.51-.27s-.4-.15-.63-.21c-.24-.06-.49-.08-.75-.08-.66,0-1.15.17-1.47.52-.32.34-.48.75-.48,1.22,0,.26.06.48.16.66s.25.33.43.45c.18.12.38.22.6.31.22.08.45.16.69.24.38.12.78.27,1.22.44s.83.39,1.2.66c.37.27.68.59.92.98.25.39.37.85.37,1.39,0,.47-.09.89-.28,1.27s-.45.7-.77.96c-.32.27-.71.47-1.14.61-.43.14-.89.21-1.37.21-.43,0-.85-.06-1.26-.17-.41-.11-.79-.25-1.13-.42-.34-.17-.65-.36-.91-.57-.27-.21-.48-.42-.63-.63l.89-.81c.15.14.32.3.53.46s.43.31.67.45.5.25.79.33c.28.08.59.12.92.12.3,0,.58-.04.86-.12.27-.08.51-.19.73-.34.21-.15.38-.34.5-.57.13-.23.19-.5.19-.8,0-.42-.11-.76-.33-1.02-.22-.26-.49-.48-.82-.65s-.67-.31-1.02-.42c-.35-.11-.66-.21-.92-.3-.2-.07-.45-.17-.74-.3s-.55-.3-.81-.51-.48-.48-.66-.8c-.18-.32-.28-.71-.29-1.17,0-.35.04-.69.16-1.03.11-.35.3-.66.56-.94.26-.28.61-.51,1.04-.69.43-.18.97-.27,1.59-.27.46,0,.93.07,1.42.22.49.15,1.03.45,1.64.92Z"/>
    <path class="cls-1" d="M142.79,35.18h-1.3v-7.64h1.3v7.64Z"/>
    <path class="cls-1" d="M155.25,31.72v-1.24h2.24c.32,0,.52.08.63.23s.16.39.16.71v3.1c-.43.24-.9.43-1.39.57-.49.14-1.01.21-1.57.21-.8,0-1.56-.15-2.26-.44-.71-.29-1.32-.69-1.85-1.2s-.94-1.1-1.24-1.78c-.31-.68-.46-1.4-.46-2.18s.15-1.5.46-2.18c.3-.68.72-1.28,1.24-1.79s1.14-.91,1.85-1.21c.7-.3,1.46-.45,2.26-.45.55,0,1.08.07,1.57.21.5.13.96.33,1.41.58-.12.18-.24.35-.37.53s-.26.35-.37.53c-.34-.19-.69-.33-1.06-.44-.37-.1-.76-.15-1.17-.15-.62,0-1.19.11-1.73.35-.54.23-1.01.54-1.41.94-.4.4-.72.87-.96,1.4s-.35,1.1-.35,1.69.12,1.16.35,1.69.55.99.96,1.39c.41.39.88.7,1.41.93.54.23,1.11.34,1.73.34.56,0,1.1-.09,1.61-.28v-1.6c0-.18-.02-.3-.06-.37-.04-.07-.14-.1-.32-.1h-1.3Z"/>
    <path class="cls-1" d="M175.51,24.21v11c-1.35-1.43-8.27-8.38-8.32-8.46.01.08.02.17.03.25,0,.08.01.17.02.25v7.93h-1.3v-11.47c1.35,1.46,8.27,8.56,8.32,8.63-.01-.08-.05-8.13-.05-8.13h1.3Z"/>
    <rect class="cls-2" x="140.92" y="23.23" width="2.44" height="2.44"/>
    <rect class="cls-2" x="38.34" y="19.41" width="2.44" height="2.44"/>
    <path class="cls-2" d="M46.69,53.29l14.32-28.72h1.33s-14.31,28.72-14.31,28.72h-1.34Z"/>
  </g>
</svg>