<?xml version="1.0" encoding="utf-8"?>
<!-- Generator: Adobe Illustrator 16.0.0, SVG Export Plug-In . SVG Version: 6.00 Build 0)  -->
<!DOCTYPE svg PUBLIC "-//W3C//DTD SVG 1.1//EN" "http://www.w3.org/Graphics/SVG/1.1/DTD/svg11.dtd">
<svg version="1.1" id="logo-6" xmlns="http://www.w3.org/2000/svg" xmlns:xlink="http://www.w3.org/1999/xlink" x="0px" y="0px"
	 width="129.671px" height="29.2px" viewBox="2.05 2.4 129.671 29.2" enable-background="new 2.05 2.4 129.671 29.2"
	 xml:space="preserve">
<path fill="#6A71DF" d="M15.45,6.65V2.4H2.05v29.2h13.4v-4.25c-2.745,0-5.378-1.09-7.319-3.031S5.1,19.745,5.1,17
	s1.09-5.377,3.031-7.318C10.072,7.74,12.705,6.65,15.45,6.65L15.45,6.65z"/>
<path fill="#6A71DF" d="M15.45,6.65v20.7c2.745,0,5.377-1.09,7.318-3.031S25.8,19.745,25.8,17s-1.09-5.377-3.031-7.318
	C20.828,7.74,18.195,6.65,15.45,6.65L15.45,6.65z"/>
<path fill="#394149" d="M33.32,9.25h3V23.7h-3V9.25z"/>
<path fill="#394149" d="M38,18.75c0-1.039,0.309-2.056,0.887-2.92c0.579-0.864,1.4-1.537,2.361-1.933
	c0.961-0.396,2.018-0.499,3.037-0.294c1.02,0.205,1.955,0.708,2.688,1.445c0.733,0.737,1.23,1.675,1.43,2.696
	s0.091,2.077-0.311,3.036c-0.402,0.958-1.08,1.776-1.947,2.35S44.26,24.006,43.22,24c-0.689,0.006-1.374-0.127-2.011-0.389
	c-0.638-0.263-1.216-0.65-1.703-1.139c-0.486-0.489-0.87-1.07-1.129-1.709C38.119,20.124,37.991,19.439,38,18.75z M45.52,18.75
	c-0.012-0.448-0.155-0.883-0.413-1.25s-0.618-0.65-1.035-0.813c-0.417-0.163-0.874-0.2-1.312-0.105
	c-0.438,0.094-0.839,0.316-1.152,0.637S41.083,17.946,41,18.387c-0.083,0.44-0.035,0.896,0.14,1.309
	c0.174,0.414,0.466,0.766,0.84,1.014c0.373,0.248,0.812,0.381,1.26,0.381c0.306,0.006,0.609-0.051,0.891-0.168
	c0.282-0.116,0.537-0.289,0.75-0.51c0.212-0.219,0.376-0.48,0.483-0.766c0.107-0.287,0.153-0.592,0.137-0.896H45.52z"/>
<path fill="#394149" d="M60.31,13.8v9.41c0,3.32-2.6,4.729-5.23,4.729c-0.928,0.076-1.858-0.107-2.687-0.531
	c-0.828-0.424-1.522-1.071-2.003-1.868l2.53-1.46c0.205,0.413,0.531,0.754,0.935,0.978s0.866,0.318,1.325,0.272
	c0.292,0.036,0.589,0.007,0.869-0.085c0.28-0.093,0.536-0.245,0.75-0.447c0.214-0.203,0.381-0.45,0.488-0.725
	c0.107-0.274,0.153-0.569,0.133-0.863V22.3c-0.349,0.423-0.792,0.76-1.293,0.981c-0.502,0.223-1.048,0.324-1.597,0.299
	c-1.326,0-2.598-0.527-3.535-1.465c-0.938-0.938-1.465-2.209-1.465-3.535s0.527-2.598,1.465-3.536
	c0.938-0.938,2.209-1.464,3.535-1.464c0.548-0.026,1.095,0.076,1.597,0.298c0.501,0.222,0.944,0.558,1.293,0.981v-1L60.31,13.8z
	 M57.42,18.55c0.02-0.478-0.104-0.952-0.355-1.359c-0.251-0.407-0.619-0.73-1.055-0.928s-0.922-0.259-1.394-0.178
	c-0.472,0.081-0.909,0.301-1.255,0.633c-0.346,0.331-0.584,0.758-0.685,1.226c-0.101,0.469-0.06,0.956,0.118,1.4
	c0.179,0.444,0.486,0.825,0.882,1.094s0.864,0.412,1.343,0.412c0.313,0.023,0.626-0.021,0.921-0.127
	c0.294-0.105,0.564-0.273,0.79-0.49c0.226-0.216,0.404-0.479,0.523-0.768C57.373,19.175,57.429,18.863,57.42,18.55z"/>
<path fill="#394149" d="M62,18.75c0-1.039,0.308-2.054,0.885-2.918c0.578-0.863,1.398-1.536,2.358-1.934
	c0.96-0.397,2.016-0.5,3.034-0.297c1.02,0.204,1.955,0.705,2.688,1.439c0.733,0.735,1.233,1.672,1.435,2.691
	c0.201,1.019,0.096,2.074-0.303,3.033s-1.074,1.779-1.938,2.354c-0.865,0.575-1.881,0.882-2.92,0.88
	c-0.69,0.007-1.376-0.125-2.015-0.387c-0.64-0.262-1.22-0.647-1.708-1.137c-0.488-0.489-0.874-1.07-1.134-1.711
	C62.122,20.127,61.992,19.441,62,18.75z M69.52,18.75c-0.012-0.449-0.155-0.884-0.414-1.251c-0.258-0.367-0.618-0.65-1.036-0.813
	s-0.875-0.199-1.313-0.104c-0.438,0.096-0.839,0.318-1.151,0.641s-0.523,0.729-0.605,1.17c-0.083,0.441-0.032,0.897,0.144,1.311
	c0.175,0.412,0.469,0.765,0.844,1.012c0.375,0.246,0.814,0.377,1.263,0.375c0.305,0.006,0.608-0.051,0.891-0.168
	c0.282-0.116,0.537-0.289,0.75-0.51c0.211-0.219,0.376-0.48,0.482-0.766c0.107-0.287,0.154-0.592,0.137-0.896H69.52z"/>
<path fill="#394149" d="M73.87,11.15c0-0.352,0.104-0.696,0.3-0.989s0.474-0.521,0.799-0.656s0.684-0.17,1.029-0.101
	c0.344,0.068,0.662,0.238,0.91,0.487c0.25,0.249,0.419,0.566,0.488,0.911c0.068,0.345,0.033,0.703-0.102,1.028
	s-0.363,0.604-0.656,0.799c-0.293,0.196-0.637,0.3-0.988,0.3c-0.471-0.005-0.92-0.195-1.254-0.527
	C74.064,12.07,73.875,11.621,73.87,11.15z M74.16,13.8h3v9.9h-3V13.8z"/>
<path fill="#394149" d="M90,18.75c0.033,0.658-0.063,1.316-0.285,1.938s-0.564,1.191-1.008,1.68s-0.979,0.884-1.576,1.164
	c-0.596,0.279-1.242,0.439-1.9,0.469c-0.56,0.037-1.119-0.053-1.639-0.262c-0.52-0.21-0.984-0.533-1.361-0.948v4.89h-3V13.8h3v0.93
	c0.377-0.414,0.842-0.736,1.361-0.944s1.08-0.295,1.639-0.256c0.656,0.029,1.299,0.188,1.895,0.466
	c0.594,0.278,1.129,0.671,1.571,1.156c0.442,0.484,0.786,1.052,1.01,1.669S90.029,18.094,90,18.75z M87,18.75
	c-0.012-0.465-0.16-0.915-0.428-1.295c-0.266-0.38-0.64-0.673-1.072-0.842c-0.433-0.169-0.906-0.207-1.359-0.108
	c-0.455,0.098-0.869,0.329-1.193,0.662c-0.323,0.333-0.541,0.755-0.627,1.211c-0.084,0.457-0.033,0.929,0.148,1.356
	s0.486,0.792,0.874,1.048s0.843,0.391,1.308,0.389c0.318,0.014,0.635-0.04,0.932-0.158c0.295-0.117,0.563-0.297,0.785-0.525
	c0.223-0.229,0.393-0.501,0.502-0.801C86.979,19.387,87.023,19.068,87,18.75z"/>
<path fill="#394149" d="M99.13,20.73c0,2.279-2,3.25-4.12,3.25c-0.864,0.077-1.732-0.105-2.492-0.526s-1.375-1.06-1.768-1.834
	l2.58-1.46c0.102,0.356,0.324,0.668,0.628,0.881S94.63,21.355,95,21.33c0.71,0,1.07-0.221,1.07-0.62c0-1.09-4.87-0.51-4.87-3.94
	c0-2.16,1.819-3.24,3.88-3.24c0.783-0.035,1.561,0.143,2.251,0.514c0.69,0.372,1.267,0.923,1.669,1.596L96.42,17
	c-0.113-0.258-0.301-0.478-0.536-0.632s-0.512-0.237-0.794-0.238c-0.52,0-0.83,0.2-0.83,0.55C94.26,17.82,99.13,17.07,99.13,20.73z"
	/>
<path fill="#394149" d="M110,13.8v9.9h-3V22.77c-0.341,0.412-0.773,0.738-1.264,0.951c-0.489,0.214-1.022,0.31-1.557,0.279
	c-2,0-3.709-1.43-3.709-4.1V13.8h3v5.65c-0.025,0.235,0.004,0.475,0.082,0.698c0.077,0.225,0.202,0.43,0.366,0.602
	c0.165,0.17,0.365,0.304,0.586,0.391c0.222,0.086,0.458,0.123,0.695,0.109c1.079,0,1.84-0.641,1.84-2V13.8H110z"/>
<path fill="#394149" d="M127,17.62v6.08h-3v-5.82c0-1-0.471-1.62-1.42-1.62c-0.95,0-1.551,0.69-1.551,1.86v5.58h-3v-5.82
	c0-1-0.469-1.62-1.42-1.62c-0.949,0-1.549,0.69-1.549,1.86v5.58h-3v-9.9h3v0.91c0.311-0.402,0.715-0.72,1.18-0.926
	s0.974-0.293,1.48-0.253c0.506-0.027,1.012,0.079,1.467,0.307c0.453,0.228,0.84,0.57,1.123,0.993c0.33-0.441,0.766-0.792,1.268-1.02
	c0.501-0.228,1.053-0.324,1.602-0.28C125.52,13.53,127,15.15,127,17.62z"/>
<path fill="#6A71DF" d="M129.52,13.74c1.215,0,2.201-0.985,2.201-2.2s-0.986-2.2-2.201-2.2s-2.199,0.985-2.199,2.2
	S128.305,13.74,129.52,13.74z"/>
</svg>
