<?xml version="1.0" encoding="UTF-8"?>
<svg id="Camada_2" data-name="Camada 2" xmlns="http://www.w3.org/2000/svg" viewBox="0 0 144.3 44.78">
  <defs>
    <style>
      .cls-1 {
        fill: #fff;
      }

      .cls-2 {
        fill: #f1891e;
      }
    </style>
  </defs>
  <g id="Camada_1-2" data-name="Camada 1">
    <path class="cls-1" d="M16.86,35.67h-.73c-1.99-2.53-3.97-5.04-5.94-7.54-1.97-2.5-3.95-5.01-5.94-7.54-.63.61-1.26,1.2-1.89,1.78s-1.26,1.18-1.89,1.78c0,1.92,0,3.84.02,5.75.01,1.92.02,3.84.02,5.76h-.51V10.17h.51v12.38c0,.2,0,.37-.02.53-.01.16-.02.34-.02.53.12-.12.22-.24.31-.36.08-.12.19-.24.31-.36,2.23-2.14,4.46-4.25,6.67-6.36,2.21-2.1,4.43-4.22,6.66-6.35h.8c-1.77,1.67-3.53,3.35-5.28,5.02-1.75,1.68-3.51,3.35-5.28,5.03,2.06,2.57,4.1,5.15,6.1,7.72,2,2.57,4.04,5.15,6.1,7.72Z"/>
    <path class="cls-1" d="M27.02,22.52c-.8.03-1.56.18-2.28.46-.72.28-1.35.65-1.89,1.13-.55.47-.98,1.04-1.29,1.69-.31.65-.47,1.36-.47,2.11v7.76h-.51v-13.66h.51v3.59c.5-1.17,1.19-1.85,2.26-2.52s2.29-1.03,3.68-1.07v.51Z"/>
    <path class="cls-1" d="M31.16,35.67h-.5v-13.66h.5v13.66Z"/>
    <path class="cls-1" d="M37.62,44.78h-.69l4.48-8.96c-1.17-2.31-2.31-4.61-3.44-6.9-1.13-2.29-2.28-4.6-3.44-6.9h.66c1.09,2.21,2.19,4.4,3.28,6.58,1.09,2.17,2.19,4.36,3.28,6.57,1.09-2.21,2.19-4.4,3.28-6.57,1.09-2.18,2.19-4.37,3.28-6.58h.66c-1.89,3.81-3.78,7.61-5.66,11.38-1.88,3.78-3.77,7.57-5.66,11.38Z"/>
    <path class="cls-1" d="M49.73,28.82c0-.97.18-1.9.55-2.77.36-.87.87-1.62,1.51-2.26.64-.63,1.39-1.13,2.24-1.51s1.77-.57,2.77-.57c1.51,0,2.85.42,4.03,1.26,1.18.84,2.03,1.91,2.57,3.22,0-.7.01-1.4.04-2.09.02-.69.06-1.39.11-2.09h.36v13.66h-.51v-1.97c0-.39,0-.77.02-1.15.01-.38.02-.76.02-1.15-.27.65-.62,1.26-1.06,1.8-.44.55-.94,1.02-1.51,1.42-.57.4-1.2.71-1.89.93-.69.22-1.42.33-2.17.33-1,0-1.92-.18-2.77-.55-.85-.36-1.6-.87-2.24-1.51-.64-.64-1.15-1.39-1.51-2.24-.36-.85-.55-1.77-.55-2.77ZM50.24,28.82c0,.92.17,1.78.51,2.57.34.79.81,1.48,1.4,2.08s1.29,1.06,2.08,1.4c.79.34,1.64.51,2.57.51s1.75-.17,2.55-.51c.8-.34,1.51-.81,2.11-1.4s1.08-1.29,1.42-2.08c.34-.79.51-1.64.51-2.57s-.17-1.75-.51-2.55c-.34-.8-.81-1.5-1.42-2.11s-1.31-1.08-2.11-1.42c-.8-.34-1.65-.51-2.55-.51s-1.78.17-2.57.51-1.48.81-2.08,1.42-1.06,1.31-1.4,2.11c-.34.8-.51,1.65-.51,2.55Z"/>
    <g id="Retângulo_1" data-name="Retângulo 1">
      <rect class="cls-2" x="0" y="0" width="63.9" height="3.4"/>
    </g>
    <rect class="cls-2" x="68.57" y="33.72" width="1.93" height="1.93"/>
    <rect class="cls-2" x="142.36" y="33.74" width="1.93" height="1.93"/>
    <path class="cls-1" d="M75.18,26.98h2.03c.59,0,1.16.1,1.69.31.53.2.99.49,1.39.87.4.38.71.84.94,1.37.23.53.35,1.14.35,1.81,0,.49-.08.99-.25,1.5-.17.51-.45.98-.83,1.4-.38.42-.87.76-1.48,1.03-.61.27-1.35.41-2.23.41h-1.6v-8.7ZM76.22,27.96v6.72h.87c.49,0,.94-.08,1.37-.24s.79-.38,1.1-.68.55-.65.73-1.06c.18-.41.27-.87.27-1.39s-.09-.98-.27-1.39c-.18-.41-.42-.77-.73-1.06s-.68-.52-1.1-.68-.88-.24-1.37-.24h-.87Z"/>
    <path class="cls-1" d="M88.01,35.68v-8.7h5.36v.98h-4.32v2.85h3.84v.98h-3.84v2.91h4.5v.98h-5.53Z"/>
    <path class="cls-1" d="M105.36,27.83c-.11.13-.22.25-.32.37-.11.13-.21.25-.32.37-.07-.07-.17-.14-.29-.22-.12-.08-.25-.15-.4-.22s-.32-.12-.5-.17c-.19-.04-.39-.07-.59-.07-.53,0-.91.14-1.16.41-.25.27-.38.59-.38.97,0,.21.04.38.13.52s.2.26.34.36c.14.09.3.17.47.24.18.06.36.13.55.19.3.1.62.22.96.35s.66.31.95.52c.3.21.54.47.73.78.2.31.29.67.29,1.11,0,.37-.07.71-.22,1.01s-.35.55-.61.76c-.26.21-.56.37-.9.49-.34.11-.7.17-1.09.17-.34,0-.68-.04-1-.13-.32-.08-.62-.2-.89-.34-.27-.14-.52-.29-.73-.45-.21-.17-.38-.33-.5-.5l.71-.64c.12.11.26.24.42.36s.34.25.53.36.4.2.62.26c.23.07.47.1.73.1.24,0,.46-.03.68-.09.22-.06.41-.15.58-.27.17-.12.3-.27.4-.45.1-.18.15-.39.15-.63,0-.33-.09-.6-.26-.81-.18-.21-.39-.38-.65-.52s-.53-.25-.81-.33c-.28-.08-.53-.16-.73-.24-.16-.06-.36-.14-.59-.24s-.44-.24-.64-.41-.38-.38-.52-.63c-.15-.25-.22-.56-.23-.93,0-.27.03-.55.12-.82.09-.27.24-.52.45-.75.21-.22.48-.41.83-.55.34-.14.77-.21,1.26-.21.36,0,.74.06,1.13.17.39.12.82.36,1.3.73Z"/>
    <path class="cls-1" d="M112.82,35.68h-1.03v-6.06h1.03v6.06Z"/>
    <path class="cls-1" d="M122.7,32.93v-.98h1.78c.25,0,.41.06.5.18s.12.31.12.57v2.46c-.34.19-.71.34-1.1.45-.39.11-.8.17-1.24.17-.64,0-1.23-.12-1.79-.35-.56-.23-1.05-.55-1.46-.95s-.75-.87-.99-1.41c-.24-.54-.36-1.11-.36-1.73s.12-1.19.36-1.73c.24-.54.57-1.01.99-1.42s.9-.72,1.46-.96c.56-.24,1.16-.36,1.79-.36.44,0,.85.06,1.24.16.39.1.77.26,1.12.46-.09.14-.19.28-.3.42s-.2.28-.3.42c-.27-.15-.54-.27-.84-.35-.29-.08-.6-.12-.93-.12-.49,0-.95.09-1.37.27-.43.18-.8.43-1.12.75-.32.32-.57.69-.76,1.11s-.28.87-.28,1.34.09.92.28,1.34.44.79.76,1.1c.32.31.7.56,1.12.74.43.18.88.27,1.37.27.45,0,.87-.07,1.28-.22v-1.27c0-.14-.02-.24-.05-.29-.03-.06-.11-.08-.25-.08h-1.03Z"/>
    <path class="cls-1" d="M139.25,26.98v8.72c-1.07-1.13-6.56-6.65-6.6-6.71,0,.07.01.13.02.2,0,.07,0,.13.02.2v6.29h-1.03v-9.1c1.07,1.16,6.56,6.79,6.6,6.85,0-.06-.04-6.45-.04-6.45h1.03Z"/>
    <rect class="cls-2" x="111.33" y="26.19" width="1.93" height="1.93"/>
    <rect class="cls-2" x="29.94" y="17.89" width="1.93" height="1.93"/>
    <path class="cls-2" d="M36.58,44.78l11.36-22.78h1.06s-11.36,22.79-11.36,22.79h-1.06Z"/>
  </g>
</svg>