<?xml version="1.0" encoding="UTF-8"?>
<svg id="Camada_1" xmlns="http://www.w3.org/2000/svg" version="1.1" xmlns:xlink="http://www.w3.org/1999/xlink" viewBox="0 0 197.1 99.4">
  <!-- Generator: Adobe Illustrator 29.3.0, SVG Export Plug-In . SVG Version: 2.1.0 Build 146)  -->
  <defs>
    <style>
      .st0 {
        fill: #fff;
      }

      .st1 {
        fill: #7ed957;
      }
    </style>
  </defs>
  <path id="elipse" class="st1" d="M50.5,2h96.5c1.6,0,3.1,0,4.7.2,1.6.2,3.1.4,4.7.7s3.1.7,4.6,1.1c1.5.5,3,1,4.4,1.6,1.5.6,2.9,1.3,4.3,2,1.4.7,2.7,1.6,4,2.4,1.3.9,2.6,1.8,3.8,2.8,1.2,1,2.4,2.1,3.5,3.2,1.1,1.1,2.2,2.3,3.2,3.5,1,1.2,1.9,2.5,2.8,3.8.9,1.3,1.7,2.7,2.4,4,.7,1.4,1.4,2.8,2,4.3.6,1.5,1.1,2.9,1.6,4.4.5,1.5.8,3,1.1,4.6s.5,3.1.7,4.7c.2,1.6.2,3.1.2,4.7s0,3.1-.2,4.7c-.2,1.6-.4,3.1-.7,4.7s-.7,3.1-1.1,4.6c-.5,1.5-1,3-1.6,4.4-.6,1.5-1.3,2.9-2,4.3-.7,1.4-1.6,2.7-2.4,4-.9,1.3-1.8,2.6-2.8,3.8-1,1.2-2.1,2.4-3.2,3.5s-2.3,2.2-3.5,3.2c-1.2,1-2.5,1.9-3.8,2.8s-2.7,1.7-4,2.4c-1.4.7-2.8,1.4-4.3,2-1.5.6-2.9,1.1-4.4,1.6-1.5.5-3,.8-4.6,1.1s-3.1.5-4.7.7-3.1.2-4.7.2H50.5c-1.6,0-3.1,0-4.7-.2-1.6-.2-3.1-.4-4.7-.7-1.5-.3-3.1-.7-4.6-1.1-1.5-.5-3-1-4.4-1.6-1.5-.6-2.9-1.3-4.3-2-1.4-.7-2.7-1.5-4-2.4-1.3-.9-2.6-1.8-3.8-2.8-1.2-1-2.4-2.1-3.5-3.2s-2.2-2.3-3.2-3.5c-1-1.2-1.9-2.5-2.8-3.8-.9-1.3-1.7-2.7-2.4-4s-1.4-2.8-2-4.3c-.6-1.5-1.1-2.9-1.6-4.4-.5-1.5-.8-3-1.1-4.6-.3-1.5-.5-3.1-.7-4.7-.2-1.6-.2-3.1-.2-4.7s0-3.1.2-4.7c.2-1.6.4-3.1.7-4.7.3-1.5.7-3.1,1.1-4.6.5-1.5,1-3,1.6-4.4.6-1.5,1.3-2.9,2-4.3s1.6-2.7,2.4-4c.9-1.3,1.8-2.6,2.8-3.8,1-1.2,2.1-2.4,3.2-3.5,1.1-1.1,2.3-2.2,3.5-3.2,1.2-1,2.5-1.9,3.8-2.8,1.3-.9,2.7-1.7,4-2.4,1.4-.7,2.8-1.4,4.3-2,1.5-.6,2.9-1.1,4.4-1.6,1.5-.5,3-.8,4.6-1.1,1.5-.3,3.1-.5,4.7-.7,1.6-.2,3.1-.2,4.7-.2Z"/>
  <path id="ciculo" class="st0" d="M51.1,92.7c23.6,0,42.7-19.1,42.7-42.7S74.7,7.4,51.1,7.4,8.5,26.5,8.5,50s19.1,42.7,42.7,42.7Z"/>
</svg>